<svg width="286" height="360" viewBox="0 0 93 93" fill="none" xmlns="http://www.w3.org/2000/svg">
<path d="M30.6 32.5H30V42.2H41.8C42.9 42.2 43.3 43.7 42.3 44.2L40 45.3C36.9 46.8 33.8 47.6 30.6 47.6H30V57.3H41.5C42.6 57.3 43 58.8 42 59.3L39.6 60.4C36.7 61.8 33.6 62.5 30.6 62.5H30V72.2H41.5L42.8 70.6C48.4 64.1 54.9 60.7 61.7 60.7H62.2V51H50.7C49.6 51 49.2 49.5 50.2 49L52.6 47.9C55.5 46.5 58.6 45.8 61.6 45.8H62.1V36.1H50.4C49.3 36.1 48.9 34.6 49.9 34.1L52.2 33C55.3 31.5 58.4 30.7 61.6 30.7H62.1V21H50.6L49.3 22.6C43.9 29.1 37.3 32.5 30.6 32.5Z" fill="#FCF9E8"/>
</svg>
